<svg xmlns="http://www.w3.org/2000/svg" viewBox="0 0 512 512">
  <defs>
    <linearGradient id="g" x1="0" y1="0" x2="1" y2="1">
      <stop offset="0" stop-color="#7c3aed"/>
      <stop offset="1" stop-color="#06b6d4"/>
    </linearGradient>
    <filter id="s" x="-20%" y="-20%" width="140%" height="140%">
      <feDropShadow dx="0" dy="18" stdDeviation="22" flood-color="#000" flood-opacity=".35"/>
    </filter>
  </defs>
  <rect width="512" height="512" rx="112" fill="#070b18"/>
  <rect x="72" y="72" width="368" height="368" rx="92" fill="url(#g)" filter="url(#s)"/>
  <path d="M178 323h36l13-54h69l-13 54h36l13-54h43v-34h-35l11-45h38v-34h-30l10-43h-36l-10 43h-69l10-43h-36l-10 43h-43v34h35l-11 45h-38v34h30l-10 43Zm58-88 11-45h69l-11 45h-69Z" fill="white"/>
</svg>
